<?xml version="1.0" encoding="UTF-8" standalone="no"?>
<!DOCTYPE svg PUBLIC "-//W3C//DTD SVG 1.1//EN" "http://www.w3.org/Graphics/SVG/1.1/DTD/svg11.dtd">
<svg xmlns="http://www.w3.org/2000/svg" version="1.1" viewBox="0.00 0.00 1169.00 257.00">
<path fill="#ff009c" d="
  M 649.50 155.77
  Q 649.50 156.69 650.17 156.06
  Q 695.80 113.91 731.10 81.33
  Q 737.08 75.81 745.00 76.98
  C 749.94 77.70 753.17 79.85 755.11 84.46
  Q 759.89 95.86 750.66 104.14
  Q 726.19 126.06 701.83 147.87
  Q 701.42 148.25 701.75 148.69
  Q 732.52 189.40 762.91 229.69
  Q 765.91 233.68 766.60 236.57
  C 768.73 245.41 763.91 253.25 754.83 255.04
  C 746.68 256.64 741.40 253.06 736.62 246.56
  Q 707.12 206.42 679.54 168.88
  Q 679.19 168.40 678.75 168.80
  L 649.91 194.97
  A 1.32 1.31 -21.6 0 0 649.49 195.93
  Q 649.49 216.19 649.50 236.30
  Q 649.50 238.78 649.34 241.03
  C 648.17 257.19 625.22 260.90 618.94 245.96
  Q 617.71 243.02 617.71 237.84
  Q 617.80 126.72 617.73 16.68
  C 617.72 8.88 622.92 1.85 630.63 0.67
  Q 638.30 -0.49 643.58 4.02
  Q 649.48 9.06 649.49 17.17
  Q 649.51 85.19 649.50 155.77
  Z"
/>
<path fill="#ffffff" d="
  M 87.61 257.00
  L 75.77 257.00
  Q 70.10 256.31 64.50 255.50
  Q 61.10 255.00 54.80 252.34
  Q 38.84 245.62 33.70 229.24
  C 32.20 224.46 31.53 218.95 31.52 213.81
  Q 31.50 159.07 31.50 105.55
  Q 31.50 104.98 30.93 104.98
  Q 18.77 105.02 6.75 104.98
  C -0.48 104.95 -1.33 96.62 3.10 92.68
  Q 3.95 91.93 4.76 91.13
  Q 27.43 68.96 49.67 47.17
  C 51.27 45.60 53.20 43.70 55.49 43.50
  C 60.21 43.11 63.06 46.60 63.03 51.02
  Q 62.95 64.24 63.01 77.45
  A 0.27 0.27 0.0 0 0 63.28 77.72
  Q 79.34 77.82 97.84 77.67
  Q 104.26 77.61 107.54 79.00
  C 118.05 83.45 117.84 99.71 107.16 103.92
  Q 104.12 105.12 99.34 105.08
  Q 80.64 104.90 63.76 105.04
  A 0.75 0.74 -0.4 0 0 63.02 105.78
  Q 62.98 159.06 63.00 210.58
  C 63.00 220.06 67.57 227.64 77.62 228.79
  C 84.80 229.62 92.19 229.79 98.95 227.31
  C 102.07 226.16 106.29 225.80 109.57 226.77
  C 121.27 230.24 120.92 245.54 111.03 250.61
  Q 101.40 255.55 87.61 257.00
  Z"
/>
<path fill="#ffffff" d="
  M 205.37 257.00
  L 191.51 257.00
  Q 187.06 256.40 182.77 255.47
  C 162.72 251.12 145.80 236.68 142.13 215.99
  C 136.56 184.59 155.46 161.02 185.23 153.41
  Q 200.21 149.59 216.81 149.54
  Q 261.30 149.41 261.43 149.44
  Q 261.95 149.57 261.97 149.04
  Q 262.29 142.02 260.96 134.16
  Q 257.49 113.64 238.94 107.53
  Q 230.20 104.65 220.65 104.35
  Q 205.21 103.86 194.06 106.16
  Q 182.84 108.48 170.12 112.54
  C 161.04 115.43 152.59 108.86 152.92 99.38
  C 153.18 91.84 157.30 88.63 164.13 85.85
  Q 195.24 73.15 226.46 74.53
  Q 233.33 74.83 240.11 76.00
  C 267.20 80.66 286.77 101.22 292.12 127.62
  Q 293.59 134.92 293.56 144.42
  Q 293.42 188.02 293.54 240.20
  C 293.56 249.31 285.54 255.78 276.76 255.37
  C 270.22 255.06 264.75 250.96 262.76 244.77
  C 261.53 240.93 262.04 236.28 262.03 232.07
  Q 262.03 231.28 261.44 231.82
  Q 246.31 245.62 231.77 251.54
  Q 220.82 255.99 205.37 257.00
  Z
  M 177.09 216.84
  C 183.47 227.11 195.29 228.99 206.80 229.31
  Q 222.70 229.75 235.96 223.16
  Q 251.03 215.69 261.70 203.89
  A 1.39 1.36 66.3 0 0 262.05 202.97
  L 262.00 175.29
  Q 262.00 174.75 261.46 174.75
  Q 242.91 174.72 224.83 174.78
  C 212.67 174.82 199.99 175.88 188.59 180.21
  Q 174.88 185.42 173.02 197.93
  Q 171.54 207.91 177.09 216.84
  Z"
/>
<path fill="#ff009c" d="
  M 887.37 257.00
  L 872.25 257.00
  Q 870.15 256.64 868.01 256.44
  Q 842.02 254.00 822.21 237.91
  C 804.32 223.37 794.44 201.47 792.22 178.48
  C 789.72 152.51 794.44 125.98 810.41 105.70
  C 828.16 83.15 854.60 73.64 883.48 74.48
  C 913.42 75.36 939.61 88.64 955.12 114.59
  C 967.99 136.11 970.53 162.91 966.13 187.46
  Q 964.45 196.79 960.66 205.90
  Q 946.67 239.52 911.04 252.54
  Q 902.51 255.66 887.37 257.00
  Z
  M 875.52 228.12
  Q 888.23 229.18 901.65 223.98
  C 918.98 217.27 931.15 201.94 934.76 183.97
  Q 937.65 169.56 935.83 153.32
  Q 933.24 130.20 916.30 115.83
  Q 912.05 112.23 906.83 109.70
  Q 883.99 98.66 860.53 106.47
  C 840.47 113.16 827.43 129.12 824.31 150.16
  Q 821.77 167.33 824.80 183.48
  C 827.68 198.85 837.15 213.18 850.67 220.56
  Q 862.55 227.05 875.52 228.12
  Z"
/>
<path fill="#ff009c" d="
  M 1043.34 105.53
  Q 1053.41 94.82 1065.40 86.50
  C 1078.34 77.53 1091.07 74.59 1106.57 74.43
  C 1129.80 74.20 1148.54 84.39 1159.78 104.80
  Q 1168.64 120.87 1168.67 140.77
  Q 1168.76 188.56 1168.81 236.09
  Q 1168.82 243.20 1167.46 246.04
  C 1160.33 261.03 1137.13 257.22 1137.19 239.87
  Q 1137.36 193.15 1137.19 145.37
  C 1137.15 133.53 1134.67 121.20 1126.34 112.51
  C 1117.78 103.59 1102.35 102.52 1090.16 104.23
  Q 1077.61 105.99 1067.18 113.54
  Q 1053.66 123.32 1043.28 136.31
  A 1.25 1.23 -26.1 0 0 1043.01 137.08
  Q 1042.96 186.93 1043.03 239.48
  Q 1043.03 243.39 1041.74 246.18
  C 1034.83 261.20 1011.46 256.97 1011.48 239.83
  Q 1011.57 171.09 1011.43 93.98
  Q 1011.42 88.34 1012.84 85.25
  C 1018.48 72.99 1036.18 73.11 1041.72 85.34
  Q 1043.25 88.72 1043.06 94.23
  Q 1042.87 100.04 1043.06 105.42
  A 0.17 0.16 65.6 0 0 1043.34 105.53
  Z"
/>
<path fill="#ffffff" d="
  M 411.93 141.13
  A 0.31 0.30 -44.5 0 0 412.40 141.13
  Q 434.87 113.31 458.29 83.84
  Q 462.00 79.16 464.53 77.86
  Q 469.73 75.20 476.07 76.62
  Q 486.22 78.89 487.90 89.28
  C 488.70 94.20 486.48 98.58 483.23 102.41
  Q 456.84 133.42 430.58 164.31
  Q 430.23 164.73 430.58 165.15
  Q 456.11 195.86 483.46 228.81
  C 488.81 235.26 489.13 243.13 483.97 249.98
  C 479.51 255.90 470.66 256.76 464.55 253.69
  Q 462.23 252.53 458.12 247.56
  Q 434.10 218.55 411.08 191.19
  A 0.42 0.41 44.3 0 0 410.44 191.19
  Q 388.38 218.87 364.70 248.58
  Q 361.78 252.25 358.89 253.66
  C 354.47 255.83 348.54 256.09 344.13 253.79
  Q 337.77 250.48 336.52 242.74
  C 335.41 235.91 337.85 231.82 342.44 226.43
  Q 366.83 197.79 392.86 166.96
  Q 393.02 166.77 392.86 166.58
  Q 366.32 134.21 339.98 102.12
  C 336.96 98.44 335.45 94.13 336.10 89.30
  C 337.37 79.80 345.13 75.24 354.24 76.29
  Q 360.01 76.95 363.57 81.35
  Q 387.72 111.26 411.93 141.13
  Z"
/>
<rect fill="#ffffff" x="-15.88" y="-89.59" transform="translate(547.88,165.82) rotate(-0.1)" width="31.76" height="179.18" rx="15.42"/>
</svg>
